<svg xmlns="http://www.w3.org/2000/svg" width="30" height="17" viewBox="0 0 47 47"><g><style>path{fill:white;}</style><path d="M44.732 23.195l-4.528-.001c-1.25.001-2.265 1.014-2.267 2.264v19.164c0 1.252 1.017 2.266 2.267 2.266h4.528c1.252 0 2.268-1.014 2.268-2.266v-19.16c0-1.252-1.016-2.267-2.268-2.267zm-1.805 21.326c-.726.727-1.903.727-2.629 0s-.726-1.902 0-2.628c.726-.728 1.904-.728 2.629 0 .725.725.725 1.901 0 2.628zM29.078 9.795c.197-2.889.969-4.351 1.238-7.204.154-1.626-1.549-2.479-4.647-2.479-3.098 0-4.298 2.773-4.648 3.718-.774 2.092 0 8.985 0 12.394 0 2.686-4.805 4.16-10.303 4.169-7.563.015-10.718-1.793-10.718 2.952 0 1.642 1.013 2.973 2.265 2.972-1.252 0-2.266 1.334-2.265 2.974 0 1.64 1.013 2.974 2.265 2.971-1.252.002-2.264 1.333-2.265 2.971 0 1.645 1.015 2.973 2.265 2.975-1.25-.002-2.265 1.33-2.264 2.975 0 1.643 1.013 2.972 2.264 2.972 0 0 3.219.003 15.429.003h16.671c.625 0 1.131-.507 1.132-1.134v-17.204c.001-.183-.045-.362-.129-.524-.001 0-6.833-7.523-6.29-15.501z"/></g></svg>